<?xml version="1.0"?>
<svg width="640" height="480" xmlns="http://www.w3.org/2000/svg" xmlns:svg="http://www.w3.org/2000/svg">
 <!-- Created with SVG-edit - https://github.com/SVG-Edit/svgedit-->
 <g class="layer">
  <title>Layer 1</title>
  <path d="m3.5,8c0,-1 14,451 13.5,451c-0.5,0 449.5,0 449,0c-0.5,0 2.5,-161 2,-161c-0.5,0 72.5,110 72,110c-0.5,0 39.5,-210 39,-210c-0.5,0 51.5,48 51,48c-0.5,0 -50.5,-151 -50.5,-152c0,-1 -68,182 -68.5,182c-0.5,0 -49.5,-171 -50,-171c-0.5,0 -1.5,-92 -2,-92l-455.5,-5z" fill="#FF0000" id="svg_2" stroke="#000000" stroke-dasharray="null" stroke-linecap="null" stroke-linejoin="null" stroke-width="5"/>
 </g>
</svg>