<?xml version="1.0" encoding="UTF-8" standalone="no"?>
<!-- Created with Inkscape (http://www.inkscape.org/) -->

<svg
   xmlns:dc="http://purl.org/dc/elements/1.1/"
   xmlns:cc="http://creativecommons.org/ns#"
   xmlns:rdf="http://www.w3.org/1999/02/22-rdf-syntax-ns#"
   xmlns:svg="http://www.w3.org/2000/svg"
   xmlns="http://www.w3.org/2000/svg"
   xmlns:sodipodi="http://sodipodi.sourceforge.net/DTD/sodipodi-0.dtd"
   xmlns:inkscape="http://www.inkscape.org/namespaces/inkscape"
   width="650"
   height="500"
   viewBox="0 0 171.979 132.29154"
   version="1.1"
   id="svg8"
   inkscape:version="0.92.3 (5aff6ba, 2018-11-25)"
   sodipodi:docname="logo1.svg">
  <defs
     id="defs2" />
  <sodipodi:namedview
     id="base"
     pagecolor="#ffffff"
     bordercolor="#666666"
     borderopacity="1.0"
     inkscape:pageopacity="0.0"
     inkscape:pageshadow="2"
     inkscape:zoom="1.28"
     inkscape:cx="332.37889"
     inkscape:cy="249.08334"
     inkscape:document-units="mm"
     inkscape:current-layer="layer1"
     showgrid="false"
     inkscape:window-width="1855"
     inkscape:window-height="1056"
     inkscape:window-x="65"
     inkscape:window-y="24"
     inkscape:window-maximized="1"
     units="px"
     height="61px"
     inkscape:snap-others="false"
     inkscape:snap-nodes="false" />
  <metadata
     id="metadata5">
    <rdf:RDF>
      <cc:Work
         rdf:about="">
        <dc:format>image/svg+xml</dc:format>
        <dc:type
           rdf:resource="http://purl.org/dc/dcmitype/StillImage" />
        <dc:title />
      </cc:Work>
    </rdf:RDF>
  </metadata>
  <g
     inkscape:groupmode="layer"
     id="layer6"
     inkscape:label="Layer 2"
     style="display:inline" />
  <g
     inkscape:label="Layer 1"
     inkscape:groupmode="layer"
     id="layer1"
     transform="translate(0,-164.70895)"
     style="display:inline">
    <g
       aria-label="Social Booth"
       style="font-style:normal;font-variant:normal;font-weight:normal;font-stretch:normal;font-size:10.58333302px;line-height:1.25;font-family:TeXGyreHeros;-inkscape-font-specification:'TeXGyreHeros, Normal';font-variant-ligatures:normal;font-variant-caps:normal;font-variant-numeric:normal;text-align:start;letter-spacing:0px;word-spacing:0px;writing-mode:lr-tb;text-anchor:start;fill:#000000;fill-opacity:1;stroke:none;stroke-width:0.03744646;stroke-miterlimit:4;stroke-dasharray:none"
       id="text12"
       transform="matrix(2.9706916,0,0,4.6971831,-81.997503,-111.4843)">
      <path
         d="m 54.77104,75.332081 q -0.04233,0.01058 -0.07408,-0.01058 -0.02117,-0.02117 -0.04233,-0.05292 -0.01058,-0.03175 -0.01058,-0.0635 0.01058,-0.04233 0.03175,-0.05292 0.05292,0.04233 0.09525,0.09525 0.04233,0.05292 0,0.08467 z m -0.28575,-0.391583 q -0.03175,-0.02117 0,-0.03175 0.04233,-0.02117 0.05292,0 0.01058,0.02117 -0.01058,0.04233 -0.01058,0.02117 -0.04233,-0.01058 z m 0.02117,0.211666 q -0.03175,-0.01058 -0.02117,-0.04233 0.02117,-0.03175 0.05292,-0.0635 0.02117,0.02117 0.01058,0.07408 0,0.05292 -0.04233,0.03175 z m -1.397,3.39725 q -0.148166,-0.0635 -0.243416,-0.0635 -0.09525,0 -0.148167,0.02117 -0.05292,0.02117 -0.08467,0.05292 -0.03175,0.02117 -0.04233,0.02117 0.05292,-0.148166 0.201084,-0.137583 0.158749,0 0.275166,0.0635 -0.02117,-0.02117 0.01058,-0.04233 0.03175,-0.02117 0.05292,0.02117 0.03175,0.04233 0.02117,0.08467 0,0 -0.04233,-0.02117 z m -0.07408,-0.169333 q 0,0.03175 -0.03175,0.03175 -0.02117,-0.01058 -0.03175,-0.04233 0,-0.03175 0.03175,-0.02117 0.03175,0 0.03175,0.03175 z m 0.105833,0.05292 q 0.01058,0.02117 -0.01058,0.02117 -0.02117,0 -0.02117,-0.02117 0,-0.02117 0.01058,-0.02117 0.02117,0 0.02117,0.02117 z m -0.148166,-0.01058 q 0,-0.02117 0.01058,-0.01058 0.01058,0 0.01058,0.01058 0,0.02117 -0.01058,0.02117 -0.01058,0 -0.01058,-0.02117 z m 1.3335,-4.074583 q -0.03175,-0.47625 0.264583,-0.79375 0.296333,-0.328083 0.783167,-0.508 0.497416,-0.1905 1.132416,-0.254 0.645584,-0.0635 1.30175,-0.01058 0.656167,0.04233 1.27,0.179916 0.624417,0.137584 1.0795,0.359834 0.465667,0.211666 0.6985,0.486833 0.243417,0.275167 0.137584,0.60325 -0.105834,0.338667 -0.4445,0.709083 -0.338667,0.370417 -0.814917,0.709084 -0.47625,0.328083 -1.037167,0.592666 -0.560916,0.254 -1.121833,0.359834 1.30175,0.423333 1.93675,1.016 0.635,0.592666 0.719667,1.195916 0.09525,0.592667 -0.306917,1.090083 -0.402167,0.508 -1.164167,0.751417 -0.762,0.243417 -1.8415,0.127 -1.068916,-0.116417 -2.328333,-0.762 -0.402167,0.306917 -0.79375,0.391583 -0.381,0.08467 -0.6985,0.01058 -0.3175,-0.07408 -0.550333,-0.275167 -0.22225,-0.201083 -0.328083,-0.465667 -0.105834,-0.264583 -0.05292,-0.550333 0.04233,-0.296333 0.275167,-0.560917 0.1905,-0.211666 0.391583,-0.211666 0.211666,-0.01058 0.4445,0.116416 0.243416,0.116417 0.508,0.3175 0.275166,0.1905 0.5715,0.391584 0.232833,-0.243417 0.455083,-0.560917 0.232833,-0.3175 0.4445,-0.751416 0.211667,-0.423334 0.433917,-0.931334 0.22225,-0.518583 0.4445,-1.04775 0.22225,-0.53975 0.423333,-1.058333 0.201083,-0.529167 0.381,-0.973667 -0.370417,0.0635 -0.687917,0.15875 -0.3175,0.09525 -0.529166,0.232834 -0.201084,0.137583 -0.264584,0.3175 -0.0635,0.179916 0.07408,0.402166 -0.08467,0.05292 -0.254,0.05292 -0.15875,-0.01058 -0.306917,-0.07408 -0.148167,-0.07408 -0.243417,-0.211667 -0.09525,-0.148167 -0.03175,-0.381 0.04233,-0.15875 0.179917,-0.328083 0.148167,-0.169334 0.338667,-0.306917 0.201083,-0.148167 0.423333,-0.243417 0.22225,-0.105833 0.423333,-0.137583 -0.338666,-0.02117 -0.635,0.105833 -0.28575,0.127 -0.508,0.338667 -0.211666,0.211667 -0.34925,0.47625 -0.127,0.254 -0.137583,0.497417 -0.0635,-0.105834 -0.0635,-0.328084 0.01058,-0.22225 0.137583,-0.486833 0.127,-0.264583 0.402167,-0.529167 0.28575,-0.275166 0.772583,-0.465666 -0.3175,0.0635 -0.5715,0.22225 -0.243416,0.148166 -0.41275,0.328083 -0.15875,0.179917 -0.254,0.370417 -0.09525,0.179916 -0.116416,0.296333 z m -1.090084,4.423833 q -0.148166,-0.148167 -0.349249,-0.169333 -0.201084,-0.02117 -0.381,0.1905 0.137583,-0.116417 0.328083,-0.127 0.1905,-0.01058 0.402166,0.105833 z m 0.264584,0.486833 q -0.148167,-0.127 -0.306917,-0.211666 -0.148167,-0.09525 -0.28575,-0.116417 -0.127,-0.02117 -0.243416,0.05292 -0.105834,0.0635 -0.179917,0.254 0.116417,-0.179917 0.381,-0.179917 0.264583,-0.01058 0.635,0.201083 z m -0.889,0.275167 q -0.148167,0.179917 -0.105833,0.328083 0.05292,0.148167 0.243416,0.211667 0.1905,0.0635 0.47625,0 0.296333,-0.05292 0.645583,-0.28575 -0.201083,-0.127 -0.381,-0.232833 -0.179916,-0.116417 -0.338666,-0.15875 -0.15875,-0.05292 -0.296333,-0.02117 -0.137584,0.02117 -0.243417,0.15875 z m 6.498166,-0.455083 q 0.02117,-0.0635 0.05292,-0.254 0.03175,-0.1905 -0.07408,-0.455083 -0.09525,-0.275167 -0.41275,-0.592667 -0.306917,-0.328083 -0.973667,-0.656167 0.41275,0.22225 0.687917,0.47625 0.28575,0.254 0.4445,0.508 0.169333,0.254 0.232833,0.508 0.0635,0.243417 0.04233,0.465667 z m -4.042833,0.677333 q 1.090083,0.47625 1.862667,0.518583 0.783166,0.04233 1.248833,-0.201083 0.465667,-0.243417 0.60325,-0.687917 0.148167,-0.455083 -0.04233,-0.931333 -0.179917,-0.486833 -0.709084,-0.92075 -0.518583,-0.4445 -1.375833,-0.687916 -0.179917,0.455083 -0.381,0.878416 -0.1905,0.423334 -0.370417,0.79375 -0.402166,0.751417 -0.836083,1.23825 z m 1.756833,-3.33375 q 0.518584,-0.05292 0.994834,-0.28575 0.486833,-0.243416 0.878416,-0.560916 0.391584,-0.328084 0.645584,-0.687917 0.264583,-0.359833 0.338666,-0.656167 0.02117,-0.09525 -0.137583,-0.15875 -0.148167,-0.0635 -0.433917,-0.09525 -0.275166,-0.04233 -0.635,-0.05292 -0.359833,-0.01058 -0.751416,0.02117 -0.148167,0.455084 -0.391584,1.11125 -0.232833,0.656167 -0.508,1.36525 z m 1.703917,-0.328083 q 0.04233,-0.01058 0.179917,-0.09525 0.137583,-0.09525 0.28575,-0.211667 0.15875,-0.116416 0.28575,-0.22225 0.127,-0.105833 0.148166,-0.148166 -0.03175,0.03175 -0.15875,0.127 -0.116416,0.09525 -0.264583,0.211666 -0.137583,0.105834 -0.275167,0.211667 -0.137583,0.09525 -0.201083,0.127 z m -0.47625,0.105833 q 0.1905,-0.0635 0.455083,-0.22225 0.275167,-0.169333 0.53975,-0.391583 0.275167,-0.232833 0.508,-0.486833 0.232834,-0.264584 0.338667,-0.497417 0.116417,-0.243417 0.07408,-0.4445 -0.04233,-0.201083 -0.3175,-0.3175 0.296334,0.169333 0.232834,0.486833 -0.05292,0.306917 -0.3175,0.656167 -0.264584,0.34925 -0.677334,0.677333 -0.41275,0.328084 -0.836083,0.53975 z"
         style="font-style:normal;font-variant:normal;font-weight:normal;font-stretch:normal;font-size:10.58333302px;font-family:Sketch;-inkscape-font-specification:'Sketch , Normal';font-variant-ligatures:normal;font-variant-caps:normal;font-variant-numeric:normal;font-feature-settings:normal;text-align:start;writing-mode:lr-tb;text-anchor:start;fill:#000000;stroke-width:0.03744646;stroke-miterlimit:4;stroke-dasharray:none"
         id="path118"
         inkscape:connector-curvature="0" />
      <path
         d="m 64.658686,77.501664 q 0.05292,-0.09525 0.137583,-0.127 0.08467,-0.04233 0.137583,-0.02117 0.0635,0.02117 0.08467,0.105833 0.02117,0.08467 -0.05292,0.232833 -0.116416,0.254 -0.34925,0.635 -0.232833,0.381 -0.529166,0.709083 -0.296334,0.328084 -0.645584,0.508 -0.338666,0.179917 -0.677333,0.04233 -0.0635,-0.02117 -0.127,-0.07408 -0.328083,0.3175 -0.656167,0.4445 -0.3175,0.116417 -0.582083,0.0635 -0.264583,-0.05292 -0.433917,-0.264583 -0.179916,-0.211667 -0.22225,-0.560917 -0.05292,-0.34925 0.05292,-0.814916 0.105833,-0.465667 0.423333,-1.037167 0.359834,-0.645583 0.73025,-0.994833 0.381,-0.359833 0.719667,-0.455083 0.34925,-0.105834 0.624417,0.01058 0.275166,0.116417 0.41275,0.402167 0.148166,0.28575 0.137583,0.719666 0,0.423334 -0.22225,0.941917 -0.148167,0.34925 -0.306917,0.635 -0.148166,0.275166 -0.3175,0.497416 v 0.01058 q 0.148167,0.07408 0.306917,0 0.169333,-0.08467 0.338667,-0.243417 0.179916,-0.15875 0.34925,-0.370416 0.169333,-0.211667 0.296333,-0.41275 0.137583,-0.201084 0.232833,-0.359834 0.105834,-0.15875 0.137584,-0.22225 z m -1.439334,1.74625 q -0.381,-0.01058 -0.560916,-0.211667 -0.169334,-0.201083 -0.211667,-0.476249 -0.03175,-0.275167 0.04233,-0.5715 0.07408,-0.296334 0.1905,-0.508 -0.148166,0.254 -0.232833,0.5715 -0.07408,0.306916 -0.03175,0.571499 0.04233,0.264584 0.232833,0.4445 0.1905,0.179917 0.5715,0.179917 z m -0.381,-1.164166 q 0.09525,-0.201084 0.148167,-0.359834 0.05292,-0.169333 0.07408,-0.306916 -0.169333,0.211666 -0.264583,0.465666 -0.08467,0.254 -0.09525,0.497417 0.03175,-0.0635 0.0635,-0.137583 0.04233,-0.07408 0.07408,-0.15875 z m 0.635,-1.989667 q -0.116416,-0.148167 -0.296333,-0.179917 -0.179917,-0.03175 -0.381,0.03175 -0.201083,0.05292 -0.402167,0.169334 -0.201083,0.116416 -0.34925,0.264583 0.15875,-0.15875 0.359834,-0.264583 0.211666,-0.105834 0.41275,-0.148167 0.211666,-0.05292 0.381,-0.02117 0.179916,0.03175 0.275166,0.148167 z m -2.06375,3.556 q -0.09525,-0.04233 -0.1905,-0.15875 -0.08467,-0.116417 -0.09525,-0.296334 0,0.127 0.0635,0.275167 0.0635,0.148167 0.22225,0.179917 z m -0.60325,-0.624417 q 0,0.116417 0.04233,0.275167 0.03175,0.15875 0.127,0.306916 0.09525,0.148167 0.254,0.254 0.15875,0.09525 0.402166,0.105834 -0.08467,-0.01058 -0.211666,-0.04233 -0.127,-0.03175 -0.254,-0.127 -0.127,-0.105833 -0.22225,-0.28575 -0.105834,-0.179916 -0.137584,-0.486833 z m 0.529167,-0.116417 q -0.05292,0.328084 0.07408,0.486834 0.137584,0.15875 0.306917,0.127 -0.137583,0 -0.22225,-0.0635 -0.07408,-0.07408 -0.116417,-0.169334 -0.03175,-0.105833 -0.04233,-0.211666 0,-0.105834 0,-0.169334 z m 0.92075,0.169334 q -0.179917,-0.338667 -0.179917,-0.804333 0,-0.465667 0.179917,-0.899584 -0.105833,0.243417 -0.169333,0.486834 -0.05292,0.243416 -0.0635,0.381 -0.02117,-0.15875 0,-0.34925 0.03175,-0.201084 0.08467,-0.391584 0.05292,-0.1905 0.137584,-0.34925 0.09525,-0.15875 0.201083,-0.243416 -0.179917,0.116416 -0.359833,0.391583 -0.179917,0.264583 -0.370417,0.656167 -0.22225,0.455083 -0.264583,0.814916 -0.04233,0.34925 0.04233,0.529167 0.09525,0.169333 0.296333,0.137583 0.201084,-0.04233 0.465666,-0.359833 z m 0.07408,-0.22225 q 0,0.08467 0.09525,0.243416 0.105834,0.148167 0.275167,0.254 0.169333,0.105834 0.381,0.116417 0.211667,0.01058 0.423333,-0.1905 -0.22225,0.1905 -0.433916,0.179917 -0.211667,-0.01058 -0.381,-0.116417 -0.15875,-0.116417 -0.264584,-0.264583 -0.09525,-0.148167 -0.09525,-0.22225 z m 1.11125,-0.381 q 0.22225,-0.359833 0.328084,-0.687917 0.105833,-0.328083 0.137583,-0.60325 0.03175,-0.28575 -0.01058,-0.497416 -0.03175,-0.211667 -0.105834,-0.34925 0.116417,0.137583 0.15875,0.359833 0.05292,0.22225 0.02117,0.508 -0.03175,0.28575 -0.15875,0.613833 -0.127,0.328084 -0.370417,0.656167 z"
         style="font-style:normal;font-variant:normal;font-weight:normal;font-stretch:normal;font-size:10.58333302px;font-family:Sketch;-inkscape-font-specification:'Sketch , Normal';font-variant-ligatures:normal;font-variant-caps:normal;font-variant-numeric:normal;font-feature-settings:normal;text-align:start;writing-mode:lr-tb;text-anchor:start;fill:#000000;stroke-width:0.03744646;stroke-miterlimit:4;stroke-dasharray:none"
         id="path120"
         inkscape:connector-curvature="0" />
      <path
         d="m 68.11067,77.501664 q 0.05292,-0.09525 0.137583,-0.127 0.08467,-0.04233 0.137584,-0.02117 0.0635,0.02117 0.08467,0.105833 0.02117,0.08467 -0.05292,0.232833 -0.116417,0.254 -0.34925,0.635 -0.232834,0.381 -0.529167,0.709083 -0.296333,0.328084 -0.645583,0.508 -0.338667,0.179917 -0.677334,0.04233 -0.0635,-0.02117 -0.127,-0.07408 -0.328083,0.3175 -0.656166,0.4445 -0.3175,0.116417 -0.582084,0.0635 -0.264583,-0.05292 -0.433916,-0.264583 -0.179917,-0.211667 -0.22225,-0.560917 -0.05292,-0.34925 0.05292,-0.814916 0.105834,-0.465667 0.423334,-1.037167 0.359833,-0.645583 0.73025,-0.994833 0.381,-0.359833 0.719666,-0.455083 0.34925,-0.105834 0.624417,0.01058 0.275167,0.116417 0.41275,0.402167 0.148167,0.28575 0.137583,0.719666 0,0.423334 -0.22225,0.941917 -0.148166,0.34925 -0.306916,0.635 -0.148167,0.275166 -0.3175,0.497416 v 0.01058 q 0.148166,0.07408 0.306916,0 0.169334,-0.08467 0.338667,-0.243417 0.179917,-0.15875 0.34925,-0.370416 0.169333,-0.211667 0.296333,-0.41275 0.137584,-0.201084 0.232834,-0.359834 0.105833,-0.15875 0.137583,-0.22225 z m -1.439333,1.74625 q -0.381,-0.01058 -0.560917,-0.211667 -0.169333,-0.201083 -0.211667,-0.476249 -0.03175,-0.275167 0.04233,-0.5715 0.07408,-0.296334 0.1905,-0.508 -0.148167,0.254 -0.232834,0.5715 -0.07408,0.306916 -0.03175,0.571499 0.04233,0.264584 0.232834,0.4445 0.1905,0.179917 0.5715,0.179917 z m -0.381,-1.164166 q 0.09525,-0.201084 0.148166,-0.359834 0.05292,-0.169333 0.07408,-0.306916 -0.169334,0.211666 -0.264584,0.465666 -0.08467,0.254 -0.09525,0.497417 0.03175,-0.0635 0.0635,-0.137583 0.04233,-0.07408 0.07408,-0.15875 z m 0.635,-1.989667 q -0.116417,-0.148167 -0.296334,-0.179917 -0.179916,-0.03175 -0.381,0.03175 -0.201083,0.05292 -0.402166,0.169334 -0.201084,0.116416 -0.34925,0.264583 0.15875,-0.15875 0.359833,-0.264583 0.211667,-0.105834 0.41275,-0.148167 0.211667,-0.05292 0.381,-0.02117 0.179917,0.03175 0.275167,0.148167 z m -2.06375,3.556 q -0.09525,-0.04233 -0.1905,-0.15875 -0.08467,-0.116417 -0.09525,-0.296334 0,0.127 0.0635,0.275167 0.0635,0.148167 0.22225,0.179917 z m -0.60325,-0.624417 q 0,0.116417 0.04233,0.275167 0.03175,0.15875 0.127,0.306916 0.09525,0.148167 0.254,0.254 0.15875,0.09525 0.402167,0.105834 -0.08467,-0.01058 -0.211667,-0.04233 -0.127,-0.03175 -0.254,-0.127 -0.127,-0.105833 -0.22225,-0.28575 -0.105833,-0.179916 -0.137583,-0.486833 z m 0.529166,-0.116417 q -0.05292,0.328084 0.07408,0.486834 0.137583,0.15875 0.306916,0.127 -0.137583,0 -0.22225,-0.0635 -0.07408,-0.07408 -0.116416,-0.169334 -0.03175,-0.105833 -0.04233,-0.211666 0,-0.105834 0,-0.169334 z m 0.92075,0.169334 q -0.179916,-0.338667 -0.179916,-0.804333 0,-0.465667 0.179916,-0.899584 -0.105833,0.243417 -0.169333,0.486834 -0.05292,0.243416 -0.0635,0.381 -0.02117,-0.15875 0,-0.34925 0.03175,-0.201084 0.08467,-0.391584 0.05292,-0.1905 0.137583,-0.34925 0.09525,-0.15875 0.201083,-0.243416 -0.179916,0.116416 -0.359833,0.391583 -0.179917,0.264583 -0.370417,0.656167 -0.22225,0.455083 -0.264583,0.814916 -0.04233,0.34925 0.04233,0.529167 0.09525,0.169333 0.296334,0.137583 0.201083,-0.04233 0.465666,-0.359833 z m 0.07408,-0.22225 q 0,0.08467 0.09525,0.243416 0.105833,0.148167 0.275166,0.254 0.169334,0.105834 0.381,0.116417 0.211667,0.01058 0.423334,-0.1905 -0.22225,0.1905 -0.433917,0.179917 -0.211667,-0.01058 -0.381,-0.116417 -0.15875,-0.116417 -0.264583,-0.264583 -0.09525,-0.148167 -0.09525,-0.22225 z m 1.11125,-0.381 q 0.22225,-0.359833 0.328083,-0.687917 0.105833,-0.328083 0.137583,-0.60325 0.03175,-0.28575 -0.01058,-0.497416 -0.03175,-0.211667 -0.105833,-0.34925 0.116416,0.137583 0.15875,0.359833 0.05292,0.22225 0.02117,0.508 -0.03175,0.28575 -0.15875,0.613833 -0.127,0.328084 -0.370416,0.656167 z"
         style="font-style:normal;font-variant:normal;font-weight:normal;font-stretch:normal;font-size:10.58333302px;font-family:Sketch;-inkscape-font-specification:'Sketch , Normal';font-variant-ligatures:normal;font-variant-caps:normal;font-variant-numeric:normal;font-feature-settings:normal;text-align:start;writing-mode:lr-tb;text-anchor:start;fill:#000000;stroke-width:0.03744646;stroke-miterlimit:4;stroke-dasharray:none"
         id="path122"
         inkscape:connector-curvature="0" />
      <path
         d="m 67.265821,74.675914 q 0.01058,-0.04233 0.0635,-0.03175 0.04233,0.01058 0.0635,0.03175 -0.04233,0.02117 -0.08467,0.03175 -0.05292,0.01058 -0.04233,-0.03175 z m 0.116417,0.09525 q 0,-0.01058 0.02117,-0.01058 0.01058,0 0.01058,0.01058 0,0.02117 -0.01058,0.02117 -0.02117,0 -0.02117,-0.02117 z m 0.137583,-0.15875 q -0.03175,0.03175 -0.05292,0.01058 -0.03175,-0.02117 -0.01058,-0.04233 0.02117,-0.04233 0.0635,-0.02117 0.03175,0.02117 0,0.05292 z m 4.138083,-0.497416 q 0.07408,0.03175 0.05292,0.211666 -0.02117,0.179917 -0.116417,0.402167 -0.08467,0.211667 -0.232833,0.433917 -0.137583,0.211666 -0.3175,0.328083 -0.08467,0 -1.164167,-0.09525 -0.508,1.037167 -0.846666,1.788583 -0.328084,0.740834 -0.508,1.23825 -0.179917,0.486833 -0.22225,0.751417 -0.03175,0.254 0.04233,0.3175 0.127,0.09525 0.296333,0 0.169334,-0.09525 0.359834,-0.296334 0.1905,-0.201083 0.370416,-0.465666 0.1905,-0.275167 0.34925,-0.529167 0.15875,-0.254 0.264584,-0.4445 0.116416,-0.201083 0.15875,-0.264583 0.05292,-0.09525 0.137583,-0.127 0.08467,-0.04233 0.137583,-0.02117 0.0635,0.02117 0.08467,0.105834 0.02117,0.08467 -0.05292,0.243416 -0.07408,0.169334 -0.22225,0.433917 -0.137583,0.254 -0.328083,0.53975 -0.179917,0.28575 -0.402167,0.560916 -0.211666,0.275167 -0.455083,0.47625 -0.232833,0.1905 -0.47625,0.28575 -0.232833,0.09525 -0.465667,0.01058 -0.3175,-0.116417 -0.381,-0.47625 -0.07408,-0.370417 0.05292,-0.963083 0.116417,-0.60325 0.402167,-1.418167 0.28575,-0.814917 0.66675,-1.830917 -0.529167,-0.05292 -0.85725,-0.08467 -0.338667,-0.04233 -0.391584,-0.0635 0,-0.02117 0.105834,-0.04233 l 0.105833,-0.02117 q -0.105833,-0.03175 -0.179917,-0.07408 -0.07408,-0.05292 -0.127,-0.105833 0.05292,-0.02117 0.127,-0.05292 0.07408,-0.03175 0.137584,-0.04233 -0.07408,-0.02117 -0.148167,-0.05292 -0.08467,-0.04233 -0.179917,-0.09525 0.04233,-0.01058 0.127,-0.02117 0.08467,-0.02117 0.179917,-0.03175 0.08467,-0.01058 0.169333,-0.01058 0.07408,-0.01058 0.105834,-0.01058 -0.04233,-0.01058 -0.137584,-0.02117 -0.09525,-0.01058 -0.1905,-0.02117 -0.105833,-0.02117 -0.1905,-0.03175 -0.08467,-0.02117 -0.09525,-0.03175 0,0 0.105834,0 0.09525,-0.01058 0.211666,-0.02117 0.116417,-0.01058 0.22225,-0.01058 0.105834,-0.01058 0.105834,-0.01058 -0.148167,0 -0.254,0 -0.116417,-0.01058 -0.169334,-0.05292 0.05292,0 0.486834,0 0.433916,0 1.090083,-0.02117 0.07408,-0.1905 0.1905,-0.47625 0.127,-0.28575 0.201083,-0.486833 0.07408,0.01058 0.22225,0.07408 0.148167,0.0635 0.296334,0.15875 0.15875,0.08467 0.28575,0.1905 0.137583,0.105833 0.169333,0.1905 -0.05292,0.09525 -0.07408,0.137583 -0.01058,0.03175 -0.02117,0.05292 -0.01058,0.01058 -0.02117,0.03175 -0.01058,0.01058 -0.04233,0.07408 0.47625,-0.02117 0.719667,-0.0635 0.243416,-0.05292 0.41275,-0.127 -0.0635,0.09525 -0.455084,0.211667 0.201084,0 0.370417,-0.07408 0.179917,-0.07408 0.201083,-0.15875 z m -3.52425,0.85725 q 0.02117,0 0.07408,0.01058 0.0635,0.01058 0.137583,0.02117 0.07408,0 0.137583,0 0.0635,0 0.09525,-0.01058 -0.105833,-0.01058 -0.232833,-0.02117 -0.127,-0.01058 -0.211667,0 z m 0.232834,-0.148167 q 0.01058,0 0.08467,0.01058 0.07408,0.01058 0.15875,0.02117 0.08467,0 0.169334,0 0.09525,0 0.137583,0 -0.04233,-0.02117 -0.232833,-0.02117 -0.1905,-0.01058 -0.3175,-0.01058 z m 0.740833,0.5715 q -0.04233,0.09525 -0.15875,0.359833 -0.105833,0.264584 -0.22225,0.560917 -0.105833,0.296333 -0.201083,0.550333 -0.08467,0.243417 -0.08467,0.28575 0.03175,-0.105833 0.127,-0.359833 0.105833,-0.254 0.211667,-0.529167 0.105833,-0.28575 0.201083,-0.529166 0.09525,-0.243417 0.127,-0.338667 z m -0.116417,0.963083 q 0.01058,-0.04233 0.0635,-0.179916 0.05292,-0.148167 0.105834,-0.306917 0.0635,-0.169333 0.116416,-0.306917 0.05292,-0.137583 0.05292,-0.169333 -0.02117,0.0635 -0.08467,0.22225 -0.0635,0.148167 -0.127,0.3175 -0.05292,0.15875 -0.09525,0.28575 -0.04233,0.127 -0.03175,0.137583 z m 1.42875,-1.93675 q 0.05292,0.02117 0.232834,0.01058 0.179916,-0.01058 0.296333,-0.04233 -0.02117,0 -0.09525,0.01058 -0.07408,0 -0.15875,0.01058 -0.08467,0 -0.169333,0.01058 -0.07408,0 -0.105834,0 z"
         style="font-style:normal;font-variant:normal;font-weight:normal;font-stretch:normal;font-size:10.58333302px;font-family:Sketch;-inkscape-font-specification:'Sketch , Normal';font-variant-ligatures:normal;font-variant-caps:normal;font-variant-numeric:normal;font-feature-settings:normal;text-align:start;writing-mode:lr-tb;text-anchor:start;fill:#000000;stroke-width:0.03744646;stroke-miterlimit:4;stroke-dasharray:none"
         id="path124"
         inkscape:connector-curvature="0" />
      <path
         d="m 72.14904,73.945664 q 0.07408,0 0.02117,0.116417 -0.02117,-0.02117 -0.04233,-0.0635 -0.01058,-0.05292 0.02117,-0.05292 z m 0.592666,0.07408 q 0.05292,0.07408 -0.01058,0.169333 -0.05292,0.09525 -0.232833,0.137583 -0.02117,-0.169333 0.08467,-0.264583 0.105834,-0.105833 0.15875,-0.04233 z m -0.338666,0.232833 q 0.02117,0.05292 -0.02117,0.08467 -0.04233,0.02117 -0.07408,-0.03175 -0.01058,-0.05292 0.02117,-0.07408 0.04233,-0.02117 0.07408,0.02117 z m 1.42875,3.2385 q 0.05292,-0.09525 0.137583,-0.127 0.08467,-0.04233 0.137583,-0.01058 0.0635,0.02117 0.08467,0.105833 0.02117,0.08467 -0.05292,0.232833 -0.07408,0.169334 -0.232833,0.4445 -0.148167,0.275167 -0.34925,0.582083 -0.1905,0.306917 -0.433917,0.60325 -0.232833,0.296334 -0.486833,0.518584 -0.243417,0.22225 -0.497417,0.328083 -0.254,0.105833 -0.47625,0.02117 -0.232833,-0.08467 -0.391583,-0.275167 -0.15875,-0.201083 -0.169333,-0.582083 0,-0.391584 0.201083,-0.994833 0.211667,-0.613834 0.709083,-1.524 -0.127,0.03175 -0.34925,0.243416 -0.211666,0.211667 -0.47625,0.582084 -0.264583,0.359833 -0.560916,0.867833 -0.296334,0.508 -0.592667,1.153583 -0.04233,0.08467 -0.07408,0.179917 -0.04233,0.09525 -0.08467,0.179916 -0.09525,0.05292 -0.1905,0.01058 -0.09525,-0.05292 -0.169333,-0.148167 -0.08467,-0.105833 -0.137583,-0.22225 -0.05292,-0.127 -0.0635,-0.211667 0.02117,-0.05292 0.07408,-0.15875 0.05292,-0.105833 0.116417,-0.232833 0.0635,-0.127 0.126999,-0.264583 0.0635,-0.137584 0.105834,-0.243417 -0.05292,0.09525 -0.116417,0.232833 -0.0635,0.137584 -0.137583,0.275167 -0.07408,0.137583 -0.127,0.243417 -0.0635,0.105833 -0.09525,0.127 0.53975,-1.185333 0.931333,-2.180167 0.402167,-0.994833 0.645583,-1.735666 0.254,-0.740834 0.34925,-1.2065 0.09525,-0.47625 0.03175,-0.624417 0.0635,-0.05292 0.22225,-0.04233 0.15875,0.01058 0.3175,0.09525 0.169334,0.07408 0.275167,0.232833 0.116417,0.15875 0.08467,0.391583 0.05292,-0.04233 0.05292,-0.201083 0.04233,0.07408 0.03175,0.179917 0,0.09525 -0.03175,0.201083 -0.02117,0.105833 -0.0635,0.211667 -0.04233,0.09525 -0.07408,0.15875 0.04233,-0.0635 0.116417,-0.22225 0.07408,-0.15875 0.07408,-0.243417 0.02117,0.15875 -0.05292,0.328083 -0.0635,0.169334 -0.179916,0.41275 0.05292,-0.105833 0.15875,-0.254 0.116416,-0.148166 0.201083,-0.201083 -0.179917,0.275167 -0.4445,0.783167 -0.264583,0.508 -0.508,1.068916 0.296333,-0.306916 0.592667,-0.497416 0.306916,-0.201084 0.582083,-0.22225 0.169333,0.137583 0.264583,0.338666 0.105834,0.1905 0.148167,0.391584 0.04233,0.1905 0.04233,0.359833 0.01058,0.15875 0,0.243417 -0.66675,1.121833 -0.9525,1.767416 -0.28575,0.645583 -0.169333,0.719667 0.137583,0.08467 0.3175,-0.03175 0.1905,-0.116417 0.391583,-0.338667 0.201084,-0.22225 0.402167,-0.508 0.201083,-0.296333 0.370417,-0.560916 0.169333,-0.275167 0.28575,-0.47625 0.127,-0.211667 0.15875,-0.275167 z m -2.021417,-2.19075 q -0.03175,0.05292 -0.08467,0.169333 -0.05292,0.105834 -0.105833,0.22225 -0.05292,0.116417 -0.09525,0.22225 -0.04233,0.09525 -0.05292,0.127 0.01058,-0.01058 0.05292,-0.116416 0.05292,-0.116417 0.116417,-0.243417 0.0635,-0.137583 0.105833,-0.243417 0.05292,-0.116416 0.0635,-0.137583 z m -0.455083,1.04775 q -0.02117,0.05292 -0.0635,0.148167 -0.03175,0.09525 -0.07408,0.201083 -0.03175,0.105833 -0.0635,0.211667 -0.03175,0.09525 -0.04233,0.148166 0.07408,-0.105833 0.243417,-0.264583 0.179916,-0.15875 0.359833,-0.306917 0.1905,-0.148166 0.359833,-0.264583 0.169334,-0.116417 0.232834,-0.148167 -0.07408,0.02117 -0.22225,0.116417 -0.148167,0.09525 -0.3175,0.22225 -0.15875,0.127 -0.328084,0.275167 -0.169333,0.137583 -0.275166,0.264583 0.01058,-0.04233 0.03175,-0.116417 0.03175,-0.08467 0.05292,-0.179916 0.03175,-0.09525 0.05292,-0.179917 0.03175,-0.08467 0.05292,-0.127 z m -0.635,1.524 q -0.05292,0.08467 -0.169334,0.296333 -0.105833,0.211667 -0.232833,0.4445 -0.127,0.232833 -0.232833,0.433917 -0.105834,0.1905 -0.137584,0.254 0.03175,-0.04233 0.15875,-0.254 0.116417,-0.211667 0.243417,-0.455083 0.137583,-0.243417 0.243417,-0.455084 0.105833,-0.211666 0.127,-0.264583 z m -0.79375,1.894416 q 0.137583,-0.359833 0.370416,-0.8255 0.243417,-0.476249 0.518584,-0.920749 0.28575,-0.4445 0.5715,-0.79375 0.28575,-0.34925 0.529166,-0.47625 -0.22225,0.105833 -0.455083,0.34925 -0.22225,0.243416 -0.4445,0.550333 -0.211667,0.306917 -0.41275,0.656167 -0.1905,0.338666 -0.338667,0.634999 -0.137583,0.296334 -0.232833,0.529167 -0.09525,0.22225 -0.105833,0.296333 z m 1.576916,-2.942166 q 0.02117,-0.01058 0.105834,-0.08467 0.09525,-0.08467 0.201083,-0.169333 0.116417,-0.08467 0.22225,-0.148167 0.116417,-0.07408 0.169333,-0.07408 -0.04233,-0.02117 -0.137583,0.03175 -0.08467,0.05292 -0.201083,0.137583 -0.105834,0.07408 -0.211667,0.169334 -0.09525,0.08467 -0.148167,0.137583 z m 0.28575,2.550583 q -0.05292,0.116417 -0.05292,0.232833 0,0.116417 0.0635,0.179917 0.0635,0.0635 0.201083,0.05292 0.137583,-0.01058 0.34925,-0.148167 -0.254,0.137583 -0.381,0.137583 -0.127,-0.01058 -0.179917,-0.08467 -0.04233,-0.08467 -0.03175,-0.1905 0.01058,-0.116417 0.03175,-0.179917 z"
         style="font-style:normal;font-variant:normal;font-weight:normal;font-stretch:normal;font-size:10.58333302px;font-family:Sketch;-inkscape-font-specification:'Sketch , Normal';font-variant-ligatures:normal;font-variant-caps:normal;font-variant-numeric:normal;font-feature-settings:normal;text-align:start;writing-mode:lr-tb;text-anchor:start;fill:#000000;stroke-width:0.03744646;stroke-miterlimit:4;stroke-dasharray:none"
         id="path126"
         inkscape:connector-curvature="0" />
    </g>
    <g
       aria-label="Social Booth"
       style="font-style:normal;font-variant:normal;font-weight:normal;font-stretch:normal;font-size:10.58333302px;line-height:1.25;font-family:TeXGyreHeros;-inkscape-font-specification:'TeXGyreHeros, Normal';font-variant-ligatures:normal;font-variant-caps:normal;font-variant-numeric:normal;text-align:start;letter-spacing:0px;word-spacing:0px;writing-mode:lr-tb;text-anchor:start;fill:#000000;fill-opacity:1;stroke:none;stroke-width:0.26458332"
       id="text12-0"
       transform="matrix(4.1196078,0,0,4.7378602,-82.418463,-152.43199)">
      <path
         d="m 35.272738,73.077831 q 0.148166,0.07408 0.1905,0.211667 0.05292,0.137583 0.03175,0.3175 -0.01058,0.169333 -0.08467,0.34925 -0.0635,0.179916 -0.15875,0.34925 -0.08467,0.15875 -0.179917,0.28575 -0.09525,0.127 -0.15875,0.179916 -0.02117,-0.02117 -0.05292,-0.02117 0,0 -0.02117,-0.01058 -0.02117,0 -0.02117,-0.01058 -0.179916,-0.04233 -0.3175,0.01058 -0.137583,0.04233 -0.243416,0.148167 -0.09525,0.105833 -0.148167,0.254 -0.04233,0.137583 -0.02117,0.28575 -0.07408,-0.116417 -0.04233,-0.328083 -0.05292,0.137583 -0.04233,0.296333 0.02117,0.148167 0.127,0.296333 -0.1905,-0.03175 -0.306917,-0.148166 -0.105833,-0.116417 -0.148167,-0.264584 -0.04233,-0.15875 -0.04233,-0.3175 0.01058,-0.15875 0.05292,-0.275166 -0.116417,0.211666 -0.127,0.423333 -0.01058,0.211667 0.0635,0.381 0.07408,0.15875 0.232833,0.275167 0.169333,0.116416 0.402167,0.137583 -0.179917,0.105833 -0.433917,0.04233 -0.254,-0.07408 -0.455083,-0.296333 -0.1905,-0.232833 -0.264584,-0.60325 -0.07408,-0.370417 0.105834,-0.878417 -0.381,-0.296333 -0.719667,-0.391583 -0.328083,-0.09525 -0.582083,-0.05292 -0.243417,0.04233 -0.391584,0.201084 -0.148166,0.15875 -0.179916,0.370416 -0.02117,0.211667 0.09525,0.4445 0.127,0.232834 0.41275,0.423334 0.719666,0.486833 1.132416,1.04775 0.41275,0.560916 0.5715,1.143 0.169334,0.5715 0.09525,1.132416 -0.0635,0.550333 -0.3175,1.026583 -0.243416,0.47625 -0.656166,0.8255 -0.402167,0.359834 -0.92075,0.529167 -0.518584,0.179917 -1.121834,0.137583 -0.60325,-0.04233 -1.23825,-0.370416 -0.582083,-0.296334 -0.910166,-0.73025 -0.328084,-0.4445 -0.4445,-0.931334 -0.116417,-0.497416 -0.05292,-0.994833 0.07408,-0.497416 0.275167,-0.92075 0.211666,-0.423333 0.518583,-0.719666 0.3175,-0.296334 0.6985,-0.381 -0.127,0.09525 -0.381,0.306916 -0.243417,0.201084 -0.4445,0.550334 0.148167,-0.254 0.4445,-0.47625 0.306917,-0.232834 0.719667,-0.254 0.232833,0 0.4445,0.127 0.22225,0.116416 0.381,0.296333 0.15875,0.169333 0.243416,0.370417 0.08467,0.201083 0.05292,0.359833 -0.34925,-0.09525 -0.677333,0.04233 -0.328084,0.127 -0.582084,0.391584 -0.254,0.264583 -0.41275,0.624416 -0.15875,0.359833 -0.179916,0.73025 -0.02117,0.359833 0.105833,0.6985 0.137583,0.328083 0.465667,0.53975 0.455083,0.296333 0.931333,0.254 0.486833,-0.04233 0.867833,-0.328083 0.391584,-0.275167 0.635,-0.740834 0.254,-0.47625 0.254,-1.026583 0,-0.560916 -0.306916,-1.164166 -0.306917,-0.60325 -1.016,-1.143 -0.66675,-0.508 -0.9525,-1.037167 -0.28575,-0.529167 -0.264584,-0.994833 0.03175,-0.465667 0.338667,-0.814917 0.3175,-0.34925 0.836083,-0.486833 0.529167,-0.137584 1.227667,-0.02117 0.709083,0.116417 1.534583,0.5715 0.1905,-0.169333 0.402167,-0.254 0.211667,-0.09525 0.41275,-0.116417 0.211667,-0.02117 0.391583,0.01058 0.1905,0.03175 0.328084,0.105833 z m -5.30225,4.053417 q -0.370417,0.08467 -0.613834,0.391583 -0.243416,0.306917 -0.370416,0.6985 -0.127,0.381 -0.137584,0.762 0,0.370416 0.116417,0.592666 -0.127,-0.391583 -0.0635,-0.79375 0.07408,-0.402166 0.232833,-0.740833 0.169334,-0.34925 0.391584,-0.592666 0.232833,-0.243417 0.4445,-0.3175 z m 3.249083,0.22225 q 0,-0.169334 -0.05292,-0.338667 -0.04233,-0.179917 -0.127,-0.3175 -0.08467,-0.148167 -0.1905,-0.254 -0.09525,-0.116417 -0.1905,-0.169333 0.169334,0.148166 0.338667,0.4445 0.169333,0.296333 0.22225,0.635 z m -0.15875,0.34925 q 0.0635,-0.1905 0.01058,-0.423334 -0.04233,-0.232833 -0.15875,-0.455083 -0.105833,-0.232833 -0.264583,-0.41275 -0.15875,-0.1905 -0.328083,-0.275167 0.169333,0.116417 0.306916,0.296334 0.148167,0.179916 0.254,0.402166 0.105834,0.211667 0.148167,0.4445 0.05292,0.22225 0.03175,0.423334 z m -0.211667,-0.306917 q 0,-0.148167 -0.0635,-0.306917 -0.05292,-0.169333 -0.148166,-0.3175 -0.08467,-0.148166 -0.1905,-0.254 -0.105834,-0.116416 -0.201084,-0.169333 0.179917,0.148167 0.359834,0.433917 0.179916,0.28575 0.243416,0.613833 z m -0.381,0.60325 q 0.02117,-0.254 -0.08467,-0.53975 -0.09525,-0.28575 -0.254,-0.550333 -0.15875,-0.264584 -0.359834,-0.465667 -0.201083,-0.201083 -0.381,-0.275167 0.09525,0.07408 0.254,0.232834 0.169334,0.148166 0.338667,0.381 0.169333,0.22225 0.296333,0.529166 0.137584,0.306917 0.1905,0.687917 z m -0.98425,-4.243917 q 0.02117,-0.02117 0.08467,-0.05292 0.07408,-0.04233 0.15875,-0.0635 0.09525,-0.03175 0.1905,-0.04233 0.105833,-0.02117 0.201083,0 -0.05292,-0.03175 -0.148166,-0.03175 -0.08467,0 -0.1905,0.03175 -0.09525,0.02117 -0.179917,0.0635 -0.08467,0.04233 -0.116417,0.09525 z m -0.338666,0.254 q 0,-0.105833 0.05292,-0.232833 0.0635,-0.127 0.1905,-0.22225 0.127,-0.105833 0.328084,-0.148167 0.211666,-0.05292 0.518583,0 -0.116417,-0.04233 -0.3175,-0.04233 -0.1905,-0.01058 -0.370417,0.05292 -0.179916,0.0635 -0.306916,0.211666 -0.116417,0.137584 -0.09525,0.381 z m 2.688166,0.41275 q 0.05292,-0.05292 0.148167,-0.127 0.105833,-0.07408 0.232833,-0.127 0.127,-0.0635 0.275167,-0.08467 0.15875,-0.03175 0.338667,0 -0.179917,-0.0635 -0.34925,-0.04233 -0.169334,0.02117 -0.306917,0.08467 -0.127,0.0635 -0.22225,0.148167 -0.08467,0.08467 -0.116417,0.148166 z m -2.973916,2.921 q 0.09525,-0.01058 0.15875,0.03175 0.07408,0.03175 0.105833,0.08467 0.03175,0.04233 0.02117,0.09525 0,0.04233 -0.0635,0.05292 -0.116417,0.02117 -0.148167,-0.08467 -0.03175,-0.105833 -0.07408,-0.179917 z m -0.116417,0.116417 q -0.05292,0.01058 -0.05292,-0.03175 0.01058,-0.05292 0.03175,-0.09525 0.03175,0.02117 0.05292,0.07408 0.02117,0.04233 -0.03175,0.05292 z m -0.105833,-0.127 q 0.04233,-0.01058 0.04233,0.02117 0,0.02117 -0.03175,0.04233 -0.03175,0.01058 -0.04233,-0.01058 0,-0.03175 0.03175,-0.05292 z"
         style="font-style:normal;font-variant:normal;font-weight:normal;font-stretch:normal;font-size:10.58333302px;font-family:Sketch;-inkscape-font-specification:'Sketch , Normal';font-variant-ligatures:normal;font-variant-caps:normal;font-variant-numeric:normal;font-feature-settings:normal;text-align:start;writing-mode:lr-tb;text-anchor:start;fill:#000000;stroke-width:0.26458332"
         id="path106-5"
         inkscape:connector-curvature="0" />
      <path
         d="m 38.076329,77.501664 q 0.05292,-0.09525 0.137583,-0.127 0.08467,-0.04233 0.137583,-0.02117 0.0635,0.02117 0.08467,0.105833 0.02117,0.08467 -0.05292,0.232833 -0.116416,0.254 -0.34925,0.635 -0.232833,0.381 -0.529166,0.709083 -0.296334,0.328084 -0.645584,0.508 -0.338666,0.179917 -0.677333,0.04233 -0.0635,-0.02117 -0.127,-0.07408 -0.328083,0.3175 -0.656167,0.4445 -0.3175,0.116417 -0.582083,0.0635 -0.264583,-0.05292 -0.433917,-0.264583 -0.179916,-0.211667 -0.22225,-0.560917 -0.05292,-0.34925 0.05292,-0.814916 0.105833,-0.465667 0.423333,-1.037167 0.359834,-0.645583 0.73025,-0.994833 0.381,-0.359833 0.719667,-0.455083 0.34925,-0.105834 0.624417,0.01058 0.275166,0.116417 0.41275,0.402167 0.148166,0.28575 0.137583,0.719666 0,0.423334 -0.22225,0.941917 -0.148167,0.34925 -0.306917,0.635 -0.148166,0.275166 -0.3175,0.497416 v 0.01058 q 0.148167,0.07408 0.306917,0 0.169333,-0.08467 0.338667,-0.243417 0.179916,-0.15875 0.34925,-0.370416 0.169333,-0.211667 0.296333,-0.41275 0.137583,-0.201084 0.232833,-0.359834 0.105834,-0.15875 0.137584,-0.22225 z m -1.439334,1.74625 q -0.381,-0.01058 -0.560916,-0.211667 -0.169334,-0.201083 -0.211667,-0.476249 -0.03175,-0.275167 0.04233,-0.5715 0.07408,-0.296334 0.1905,-0.508 -0.148166,0.254 -0.232833,0.5715 -0.07408,0.306916 -0.03175,0.571499 0.04233,0.264584 0.232833,0.4445 0.1905,0.179917 0.5715,0.179917 z m -0.381,-1.164166 q 0.09525,-0.201084 0.148167,-0.359834 0.05292,-0.169333 0.07408,-0.306916 -0.169333,0.211666 -0.264583,0.465666 -0.08467,0.254 -0.09525,0.497417 0.03175,-0.0635 0.0635,-0.137583 0.04233,-0.07408 0.07408,-0.15875 z m 0.635,-1.989667 q -0.116416,-0.148167 -0.296333,-0.179917 -0.179917,-0.03175 -0.381,0.03175 -0.201083,0.05292 -0.402167,0.169334 -0.201083,0.116416 -0.34925,0.264583 0.15875,-0.15875 0.359834,-0.264583 0.211666,-0.105834 0.41275,-0.148167 0.211666,-0.05292 0.381,-0.02117 0.179916,0.03175 0.275166,0.148167 z m -2.06375,3.556 q -0.09525,-0.04233 -0.1905,-0.15875 -0.08467,-0.116417 -0.09525,-0.296334 0,0.127 0.0635,0.275167 0.0635,0.148167 0.22225,0.179917 z m -0.60325,-0.624417 q 0,0.116417 0.04233,0.275167 0.03175,0.15875 0.127,0.306916 0.09525,0.148167 0.254,0.254 0.15875,0.09525 0.402166,0.105834 -0.08467,-0.01058 -0.211666,-0.04233 -0.127,-0.03175 -0.254,-0.127 -0.127,-0.105833 -0.22225,-0.28575 -0.105834,-0.179916 -0.137584,-0.486833 z m 0.529167,-0.116417 q -0.05292,0.328084 0.07408,0.486834 0.137584,0.15875 0.306917,0.127 -0.137583,0 -0.22225,-0.0635 -0.07408,-0.07408 -0.116417,-0.169334 -0.03175,-0.105833 -0.04233,-0.211666 0,-0.105834 0,-0.169334 z m 0.92075,0.169334 q -0.179917,-0.338667 -0.179917,-0.804333 0,-0.465667 0.179917,-0.899584 -0.105833,0.243417 -0.169333,0.486834 -0.05292,0.243416 -0.0635,0.381 -0.02117,-0.15875 0,-0.34925 0.03175,-0.201084 0.08467,-0.391584 0.05292,-0.1905 0.137584,-0.34925 0.09525,-0.15875 0.201083,-0.243416 -0.179917,0.116416 -0.359833,0.391583 -0.179917,0.264583 -0.370417,0.656167 -0.22225,0.455083 -0.264583,0.814916 -0.04233,0.34925 0.04233,0.529167 0.09525,0.169333 0.296333,0.137583 0.201084,-0.04233 0.465666,-0.359833 z m 0.07408,-0.22225 q 0,0.08467 0.09525,0.243416 0.105834,0.148167 0.275167,0.254 0.169333,0.105834 0.381,0.116417 0.211667,0.01058 0.423333,-0.1905 -0.22225,0.1905 -0.433916,0.179917 -0.211667,-0.01058 -0.381,-0.116417 -0.15875,-0.116417 -0.264584,-0.264583 -0.09525,-0.148167 -0.09525,-0.22225 z m 1.11125,-0.381 q 0.22225,-0.359833 0.328084,-0.687917 0.105833,-0.328083 0.137583,-0.60325 0.03175,-0.28575 -0.01058,-0.497416 -0.03175,-0.211667 -0.105834,-0.34925 0.116417,0.137583 0.15875,0.359833 0.05292,0.22225 0.02117,0.508 -0.03175,0.28575 -0.15875,0.613833 -0.127,0.328084 -0.370417,0.656167 z"
         style="font-style:normal;font-variant:normal;font-weight:normal;font-stretch:normal;font-size:10.58333302px;font-family:Sketch;-inkscape-font-specification:'Sketch , Normal';font-variant-ligatures:normal;font-variant-caps:normal;font-variant-numeric:normal;font-feature-settings:normal;text-align:start;writing-mode:lr-tb;text-anchor:start;fill:#000000;stroke-width:0.26458332"
         id="path108-6"
         inkscape:connector-curvature="0" />
      <path
         d="m 41.358981,77.554581 q 0.07408,-0.137583 0.15875,-0.179917 0.08467,-0.05292 0.148167,-0.03175 0.0635,0.02117 0.07408,0.105834 0.02117,0.08467 -0.03175,0.211666 -0.243417,0.5715 -0.613833,1.037167 -0.359834,0.455083 -0.772584,0.772583 -0.402166,0.3175 -0.804333,0.465667 -0.402166,0.148166 -0.719666,0.09525 -0.41275,-0.07408 -0.656167,-0.306917 -0.243417,-0.232833 -0.328083,-0.560917 -0.09525,-0.328083 -0.05292,-0.719666 0.04233,-0.402167 0.201083,-0.79375 0.148167,-0.402167 0.402167,-0.751417 0.254,-0.359833 0.582083,-0.613833 0.328084,-0.254 0.709084,-0.370417 0.391583,-0.127 0.814916,-0.04233 0.254,0.05292 0.370417,0.254 0.127,0.201083 0.116416,0.47625 0,0.264583 -0.127,0.560917 -0.127,0.296333 -0.34925,0.53975 -0.169333,0.08467 -0.41275,0.105833 -0.243416,0.02117 -0.423333,-0.01058 0.105834,-0.0635 0.179917,-0.1905 0.08467,-0.137584 0.105833,-0.211667 -0.03175,0.05292 -0.08467,0.116417 -0.05292,0.0635 -0.127,0.127 -0.0635,0.05292 -0.127,0.09525 -0.0635,0.04233 -0.105834,0.04233 0.148167,-0.105833 0.254,-0.275167 0.116417,-0.169333 0.169333,-0.328083 0.0635,-0.15875 0.05292,-0.264583 0,-0.116417 -0.07408,-0.105834 -0.22225,0.03175 -0.455083,0.211667 -0.232834,0.179917 -0.433917,0.455083 -0.1905,0.264584 -0.328083,0.582084 -0.137584,0.306916 -0.169334,0.603249 -0.03175,0.28575 0.0635,0.518584 0.09525,0.22225 0.370417,0.3175 0.22225,0.08467 0.53975,-0.04233 0.3175,-0.137583 0.645583,-0.402166 0.338667,-0.275167 0.656167,-0.656167 0.328083,-0.391583 0.582083,-0.836083 z m -1.227667,-0.687917 q 0.03175,-0.07408 0,-0.148166 -0.02117,-0.07408 -0.105833,-0.09525 -0.07408,-0.03175 -0.211666,0.01058 -0.137584,0.03175 -0.328084,0.1905 0.05292,-0.04233 0.169334,-0.09525 0.116416,-0.05292 0.232833,-0.0635 0.116416,-0.02117 0.1905,0.02117 0.07408,0.04233 0.05292,0.179916 z m -0.952499,-0.02117 q -0.402167,0.28575 -0.656167,0.709083 -0.243417,0.41275 -0.328083,0.836083 -0.08467,0.41275 0,0.762 0.09525,0.338667 0.370416,0.47625 -0.243416,-0.1905 -0.306916,-0.550333 -0.0635,-0.359834 0.02117,-0.772583 0.08467,-0.41275 0.306917,-0.804334 0.232833,-0.402166 0.592667,-0.656166 z m -0.804334,2.106083 q 0,0.08467 0.03175,0.179916 0.03175,0.09525 0.07408,0.179917 0.05292,0.08467 0.116416,0.148167 0.0635,0.05292 0.116417,0.05292 -0.127,-0.0635 -0.22225,-0.232833 -0.08467,-0.179917 -0.116417,-0.328083 z"
         style="font-style:normal;font-variant:normal;font-weight:normal;font-stretch:normal;font-size:10.58333302px;font-family:Sketch;-inkscape-font-specification:'Sketch , Normal';font-variant-ligatures:normal;font-variant-caps:normal;font-variant-numeric:normal;font-feature-settings:normal;text-align:start;writing-mode:lr-tb;text-anchor:start;fill:#000000;stroke-width:0.26458332"
         id="path110-6"
         inkscape:connector-curvature="0" />
      <path
         d="m 43.587269,77.491081 q 0.05292,-0.09525 0.127,-0.127 0.08467,-0.04233 0.148167,-0.01058 0.0635,0.02117 0.07408,0.105833 0.02117,0.08467 -0.04233,0.232833 -0.116417,0.254 -0.34925,0.677334 -0.232834,0.412749 -0.550334,0.804333 -0.306916,0.391583 -0.677333,0.656166 -0.370417,0.264584 -0.772583,0.211667 -0.402167,-0.05292 -0.5715,-0.359833 -0.179917,-0.3175 -0.105834,-0.836084 0.0635,-0.529166 0.391584,-1.238249 0.328083,-0.709084 0.931333,-1.545167 -0.03175,0.05292 -0.07408,0.127 -0.03175,0.07408 -0.0635,0.148167 -0.03175,0.07408 -0.0635,0.127 -0.02117,0.05292 -0.03175,0.0635 0.03175,-0.07408 0.08467,-0.15875 0.0635,-0.09525 0.116417,-0.169334 0.0635,-0.07408 0.116417,-0.127 0.0635,-0.05292 0.105833,-0.0635 0.232833,-0.04233 0.486833,-0.03175 0.264584,0.01058 0.455084,0.0635 0.1905,0.05292 0.264583,0.148167 0.08467,0.08467 -0.04233,0.201083 0.03175,-0.04233 -0.03175,-0.07408 -0.05292,-0.03175 -0.1905,0.08467 -0.1905,0.179916 -0.41275,0.455083 -0.211667,0.275167 -0.41275,0.592667 -0.1905,0.306916 -0.359834,0.635 -0.15875,0.3175 -0.264583,0.592666 -0.09525,0.275167 -0.116417,0.47625 -0.02117,0.1905 0.07408,0.254 0.127,0.08467 0.296333,0 0.179917,-0.09525 0.359833,-0.28575 0.179917,-0.201083 0.359834,-0.455083 0.1905,-0.254 0.338666,-0.497417 0.148167,-0.243416 0.254,-0.423333 0.105834,-0.1905 0.148167,-0.254 z m -0.635,-0.910167 q -0.137583,0.137584 -0.3175,0.391584 -0.179917,0.254 -0.359833,0.560916 -0.169334,0.306917 -0.328084,0.635 -0.148166,0.3175 -0.232833,0.592667 -0.07408,0.275166 -0.07408,0.465666 0.01058,0.1905 0.15875,0.22225 -0.148167,-0.0635 -0.137584,-0.28575 0.02117,-0.22225 0.127,-0.518583 0.105834,-0.296333 0.275167,-0.624416 0.179917,-0.338667 0.34925,-0.624417 0.179917,-0.296333 0.328083,-0.518583 0.148167,-0.22225 0.211667,-0.296334 z m -1.397,2.614083 q -0.01058,0.169334 0.0635,0.275167 0.07408,0.09525 0.1905,0.127 0.116417,0.03175 0.254,-0.01058 0.148167,-0.04233 0.275167,-0.169334 -0.137584,0.116417 -0.28575,0.15875 -0.137584,0.03175 -0.254,0 -0.105834,-0.04233 -0.179917,-0.137583 -0.0635,-0.09525 -0.0635,-0.243417 z m 1.2065,-3.534833 q -0.148167,-0.05292 -0.169333,-0.15875 -0.01058,-0.105833 0.05292,-0.211666 0.0635,-0.105834 0.1905,-0.169334 0.137584,-0.0635 0.28575,-0.02117 -0.07408,0.07408 0.0635,0.08467 0.137584,0.01058 0.370417,-0.01058 0.254,-0.02117 0.359833,0.116417 0.105834,0.137583 -0.09525,0.381 -0.07408,0.08467 -0.232833,0.127 -0.148167,0.04233 -0.3175,0.04233 -0.15875,0 -0.306917,-0.04233 -0.148166,-0.05292 -0.201083,-0.137584 z m 0.254,-0.497416 q -0.09525,0.08467 0.01058,0.09525 0.105834,0.01058 0.275167,0 0.179917,-0.01058 0.359833,0 0.1905,0.01058 0.243417,0.08467 -0.04233,-0.09525 -0.211667,-0.09525 -0.15875,-0.01058 -0.338666,0 -0.169334,0 -0.28575,0 -0.116417,0 -0.05292,-0.08467 z"
         style="font-style:normal;font-variant:normal;font-weight:normal;font-stretch:normal;font-size:10.58333302px;font-family:Sketch;-inkscape-font-specification:'Sketch , Normal';font-variant-ligatures:normal;font-variant-caps:normal;font-variant-numeric:normal;font-feature-settings:normal;text-align:start;writing-mode:lr-tb;text-anchor:start;fill:#000000;stroke-width:0.26458332"
         id="path112-4"
         inkscape:connector-curvature="0" />
      <path
         d="m 44.761357,79.533664 q 0.04233,0.08467 0.01058,0.116417 -0.02117,0.02117 -0.03175,-0.01058 -0.09525,0.169334 -0.264584,0.275167 -0.169333,0.09525 -0.338666,0.137583 -0.15875,0.05292 -0.296333,0.05292 -0.137584,0.01058 -0.179917,-0.01058 0.232833,0 0.41275,-0.05292 0.1905,-0.0635 0.3175,-0.148167 0.137583,-0.08467 0.22225,-0.179916 0.09525,-0.09525 0.148166,-0.179917 z m -0.02117,0.254 q -0.04233,0.01058 -0.03175,-0.03175 0.01058,-0.04233 0.03175,-0.0635 0.02117,0.02117 0.03175,0.0635 0.01058,0.03175 -0.03175,0.03175 z m 0.03175,-0.09525 q -0.01058,-0.02117 0,-0.02117 0.02117,-0.01058 0.03175,0.01058 0.01058,0.01058 -0.01058,0.02117 -0.01058,0.01058 -0.02117,-0.01058 z m 2.518833,-2.201333 q 0.05292,-0.09525 0.137583,-0.127 0.08467,-0.04233 0.137584,-0.01058 0.0635,0.02117 0.08467,0.105833 0.02117,0.08467 -0.05292,0.232833 -0.07408,0.169334 -0.22225,0.433917 -0.137584,0.254 -0.328084,0.53975 -0.179916,0.28575 -0.402166,0.560916 -0.211667,0.275167 -0.455084,0.47625 -0.232833,0.201084 -0.47625,0.296334 -0.232833,0.08467 -0.465666,0 -0.201084,-0.07408 -0.306917,-0.232834 -0.09525,-0.15875 -0.116417,-0.381 -0.179916,0.28575 -0.455083,0.486834 -0.275166,0.1905 -0.6985,0.169333 -0.359833,-0.02117 -0.47625,-0.296333 -0.127,-0.28575 -0.08467,-0.6985 0.04233,-0.423334 0.201083,-0.910167 0.15875,-0.486833 0.359833,-0.92075 0.201084,-0.433916 0.402167,-0.740833 0.211667,-0.3175 0.34925,-0.381 0.497416,-0.232833 0.889,-0.1905 0.402166,0.03175 0.635,0.232833 0.02117,-0.05292 0.04233,-0.09525 0.03175,-0.05292 0.0635,-0.09525 0.01058,-0.03175 0.1905,-0.03175 0.1905,0 0.381,0.04233 0.201083,0.03175 0.328083,0.116416 0.137584,0.07408 0.05292,0.201084 -0.137583,0.211666 -0.338667,0.518583 -0.1905,0.306917 -0.391583,0.645583 -0.1905,0.338667 -0.381,0.677334 -0.179917,0.338666 -0.306917,0.624416 -0.116416,0.28575 -0.15875,0.486833 -0.03175,0.201084 0.0635,0.264584 0.127,0.08467 0.296334,-0.01058 0.179916,-0.105833 0.370416,-0.306916 0.1905,-0.201084 0.370417,-0.465667 0.1905,-0.264583 0.34925,-0.508 0.15875,-0.254 0.264583,-0.4445 0.105834,-0.201083 0.148167,-0.264583 z m -3.683,1.820333 q 0.03175,-0.3175 0.148167,-0.687917 0.116417,-0.370416 0.254,-0.709083 0.148167,-0.338666 0.28575,-0.60325 0.137583,-0.275166 0.201083,-0.370416 -0.08467,0.09525 -0.232833,0.370416 -0.148167,0.275167 -0.296333,0.624417 -0.148167,0.34925 -0.254,0.719666 -0.105834,0.370417 -0.105834,0.656167 z m 0.582084,0.359833 q 0.08467,-0.03175 0.1905,-0.137583 0.105833,-0.116417 0.211666,-0.264583 0.105833,-0.15875 0.1905,-0.328084 0.08467,-0.179916 0.127,-0.338666 -0.03175,0.09525 -0.127,0.264583 -0.08467,0.169333 -0.201083,0.338667 -0.105834,0.169333 -0.22225,0.306916 -0.105833,0.137584 -0.169333,0.15875 z m -0.201084,-0.15875 q 0.1905,0.105834 0.60325,-0.592666 0.423333,-0.709083 0.994833,-2.169583 0.02117,-0.05292 -0.04233,-0.105834 -0.0635,-0.0635 -0.169333,-0.09525 -0.105834,-0.03175 -0.22225,-0.02117 -0.116417,0.01058 -0.201084,0.105833 -0.02117,0.02117 -0.09525,0.148167 -0.0635,0.116416 -0.169333,0.306916 -0.09525,0.1905 -0.211667,0.433917 -0.116416,0.243417 -0.222249,0.497417 0.169333,-0.381 0.338666,-0.6985 0.179917,-0.3175 0.275167,-0.433917 -0.03175,0.07408 -0.137584,0.275167 -0.105833,0.1905 -0.232833,0.455083 -0.127,0.264583 -0.254,0.5715 -0.127,0.296333 -0.211666,0.5715 -0.08467,0.264583 -0.105834,0.47625 -0.02117,0.201083 0.0635,0.275166 z"
         style="font-style:normal;font-variant:normal;font-weight:normal;font-stretch:normal;font-size:10.58333302px;font-family:Sketch;-inkscape-font-specification:'Sketch , Normal';font-variant-ligatures:normal;font-variant-caps:normal;font-variant-numeric:normal;font-feature-settings:normal;text-align:start;writing-mode:lr-tb;text-anchor:start;fill:#000000;stroke-width:0.26458332"
         id="path114-0"
         inkscape:connector-curvature="0" />
      <path
         d="m 49.318639,77.480498 q 0.05292,-0.09525 0.137583,-0.127 0.08467,-0.04233 0.137583,-0.01058 0.0635,0.02117 0.08467,0.105834 0.02117,0.08467 -0.05292,0.232833 -0.08467,0.169333 -0.22225,0.433917 -0.137583,0.254 -0.328083,0.550333 -0.179917,0.28575 -0.402167,0.560916 -0.211666,0.275167 -0.455083,0.486834 -0.232833,0.201083 -0.47625,0.296333 -0.232833,0.08467 -0.465667,0 -0.550333,-0.201083 -0.560916,-0.772583 -0.02117,-0.5715 0.4445,-1.566333 0.275166,-0.582084 0.497416,-1.058334 0.232834,-0.47625 0.41275,-0.878416 0.306917,-0.6985 0.455084,-1.2065 0.148166,-0.518584 -0.0635,-0.79375 0.02117,0.02117 0.07408,0.0635 0.0635,0.03175 0.105833,0.127 0,-0.05292 0,-0.105834 0.01058,-0.05292 0,-0.105833 0.0635,-0.05292 0.232834,0.03175 0.169333,0.07408 0.359833,0.232833 0.1905,0.15875 0.338667,0.370417 0.148166,0.201083 0.169333,0.41275 0.04233,0.243417 -0.01058,0.592667 -0.04233,0.34925 -0.243417,0.762 -0.1905,0.402166 -0.550333,0.846666 -0.359834,0.4445 -0.941917,0.867834 -0.4445,0.814916 -0.592667,1.248833 -0.137583,0.423333 0.05292,0.5715 0.127,0.105833 0.296333,0 0.179917,-0.105834 0.370417,-0.328084 0.1905,-0.22225 0.391583,-0.508 0.201084,-0.296333 0.359834,-0.571499 0.169333,-0.275167 0.28575,-0.486834 0.116416,-0.211666 0.15875,-0.275166 z m -0.359834,-0.846667 q 0.04233,-0.05292 0.09525,-0.148167 0.0635,-0.09525 0.105834,-0.201083 0.05292,-0.105833 0.08467,-0.1905 0.04233,-0.09525 0.04233,-0.137583 -0.01058,0.04233 -0.05292,0.137583 -0.04233,0.09525 -0.09525,0.201083 -0.05292,0.105834 -0.105833,0.201084 -0.04233,0.09525 -0.07408,0.137583 z m -0.66675,0.66675 q 0.41275,-0.391583 0.66675,-0.867833 0.264584,-0.47625 0.34925,-0.910167 -0.60325,1.037167 -1.016,1.778 z m 0.4445,-3.090333 q -0.01058,0.05292 -0.03175,0.359833 -0.01058,0.296333 -0.243416,0.8255 0.02117,-0.05292 0.07408,-0.201083 0.0635,-0.148167 0.116417,-0.328084 0.0635,-0.179916 0.08467,-0.359833 0.03175,-0.179917 -10e-7,-0.296333 z m 0.550334,0.973666 q -0.04233,0.0635 -0.148167,0.232834 -0.09525,0.15875 -0.22225,0.381 -0.116417,0.22225 -0.254,0.47625 -0.137583,0.254 -0.264583,0.497416 -0.127,0.232834 -0.232834,0.433917 -0.09525,0.201083 -0.148166,0.3175 0.04233,-0.08467 0.116416,-0.22225 0.07408,-0.148167 0.169334,-0.328083 0.105833,-0.179917 0.211666,-0.381 0.116417,-0.201084 0.22225,-0.402167 0.254,-0.465667 0.550334,-1.005417 z m -2.032,3.937 q -0.09525,0.306917 -0.03175,0.47625 0.05292,0.169333 0.179916,0.22225 0.137584,0.05292 0.306917,0.01058 0.169333,-0.05292 0.28575,-0.1905 -0.15875,0.127 -0.3175,0.169334 -0.15875,0.03175 -0.275167,-0.02117 -0.105833,-0.0635 -0.148166,-0.22225 -0.05292,-0.169333 0,-0.4445 z"
         style="font-style:normal;font-variant:normal;font-weight:normal;font-stretch:normal;font-size:10.58333302px;font-family:Sketch;-inkscape-font-specification:'Sketch , Normal';font-variant-ligatures:normal;font-variant-caps:normal;font-variant-numeric:normal;font-feature-settings:normal;text-align:start;writing-mode:lr-tb;text-anchor:start;fill:#000000;stroke-width:0.26458332"
         id="path116-0"
         inkscape:connector-curvature="0" />
    </g>
    <path
       style="fill:#ff6600;stroke:#000000;stroke-width:0.99163955;stroke-linecap:butt;stroke-linejoin:miter;stroke-miterlimit:4;stroke-dasharray:none;stroke-opacity:1"
       d="m 33.926063,234.00152 43.676422,-3.50821 1.643001,24.93336 -28.47867,-1.12766 11.090251,4.25998 -5.7505,0.37589 12.73325,5.38761 -23.275835,-5.13703 6.298167,-1.7541 -9.858001,-3.88409 -7.119668,-0.25059 z"
       id="path195-4"
       inkscape:connector-curvature="0" />
    <path
       style="fill:#ff6600;stroke:#000000;stroke-width:1.29763031;stroke-linecap:butt;stroke-linejoin:miter;stroke-miterlimit:4;stroke-dasharray:none;stroke-opacity:1"
       d="m 36.407782,235.68028 0.78526,16.18173 5.496818,-0.19496 33.878344,2.04708 -1.458339,-21.64064 z"
       id="path4720"
       inkscape:connector-curvature="0" />
    <ellipse
       style="opacity:0.01000001;fill:#000000;fill-opacity:1;stroke:#000000;stroke-width:1.79576576;stroke-miterlimit:4;stroke-dasharray:none;stroke-opacity:1"
       id="path895"
       cx="46.302086"
       cy="243.46384"
       rx="1.3279113"
       ry="1.1212056" />
    <ellipse
       style="display:inline;opacity:0.01000001;fill:#000000;fill-opacity:1;stroke:#000000;stroke-width:1.79576576;stroke-miterlimit:4;stroke-dasharray:none;stroke-opacity:1"
       id="path895-5"
       cx="56.223957"
       cy="243.46384"
       rx="1.3279113"
       ry="1.1212056"
       inkscape:transform-center-x="14.055976"
       inkscape:transform-center-y="1.4469387" />
    <ellipse
       style="display:inline;opacity:0.01000001;fill:#000000;fill-opacity:1;stroke:#000000;stroke-width:1.79576576;stroke-miterlimit:4;stroke-dasharray:none;stroke-opacity:1"
       id="path895-5-3"
       cx="66.145836"
       cy="243.25713"
       rx="1.3279113"
       ry="1.1212056"
       inkscape:transform-center-x="14.055976"
       inkscape:transform-center-y="1.4469387" />
  </g>
</svg>
